# xmcd CD database file
#
# Track frame offsets:
#	150
#	32697
#	54472
#	79028
#	106984
#	125526
#	147076
#	163979
#	182614
#	203907
#
# Disc length: 2955 seconds
#
# Revision: 28
# Processed by: cddbd v1.5.2PL0 Copyright (c) Steve Scherf et al.
# Submitted via: CDex 1.77
#
DISCID=850b890a
DTITLE=Marla Glen - Love and Respect
DYEAR=1995
DGENRE=Soul
TTITLE0=Ain't That a Shame
TTITLE1=Also Love You
TTITLE2=Break Free
TTITLE3=Repertoire
TTITLE4=You Got Me
TTITLE5=Love and Respect
TTITLE6=What About Our Kids
TTITLE7=City Love
TTITLE8=Other Plans
TTITLE9=Not Really Easy
EXTD=YEAR: 1995
EXTT0=
EXTT1=
EXTT2=
EXTT3=
EXTT4=
EXTT5=
EXTT6=
EXTT7=
EXTT8=
EXTT9=
PLAYORDER=
